<?xml version="1.0" encoding="UTF-8" standalone="no"?>
<!-- Generator: Adobe Illustrator 15.1.0, SVG Export Plug-In . SVG Version: 6.00 Build 0)  -->

<svg
   xmlns:dc="http://purl.org/dc/elements/1.1/"
   xmlns:cc="http://creativecommons.org/ns#"
   xmlns:rdf="http://www.w3.org/1999/02/22-rdf-syntax-ns#"
   xmlns:svg="http://www.w3.org/2000/svg"
   xmlns="http://www.w3.org/2000/svg"
   xmlns:xlink="http://www.w3.org/1999/xlink"
   xmlns:sodipodi="http://sodipodi.sourceforge.net/DTD/sodipodi-0.dtd"
   xmlns:inkscape="http://www.inkscape.org/namespaces/inkscape"
   version="1.1"
   id="Layer_1"
   x="0px"
   y="0px"
   width="65.315376"
   height="48.697578"
   viewBox="0 0 65.315376 48.697578"
   enable-background="new 0 0 310 60"
   xml:space="preserve"
   inkscape:version="0.91 r13725"
   sodipodi:docname="ext_icon.svg"><metadata
     id="metadata41"><rdf:RDF><cc:Work
         rdf:about=""><dc:format>image/svg+xml</dc:format><dc:type
           rdf:resource="http://purl.org/dc/dcmitype/StillImage" /><dc:title></dc:title></cc:Work></rdf:RDF></metadata><defs
     id="defs39"><defs
       id="defs5"><rect
         height="60"
         width="310"
         id="SVGID_1_"
         x="0"
         y="0" /></defs><clipPath
       id="SVGID_2_"><use
         id="use9"
         overflow="visible"
         xlink:href="#SVGID_1_"
         style="overflow:visible"
         x="0"
         y="0"
         width="100%"
         height="100%" /></clipPath></defs><sodipodi:namedview
     pagecolor="#ffffff"
     bordercolor="#666666"
     borderopacity="1"
     objecttolerance="10"
     gridtolerance="10"
     guidetolerance="10"
     inkscape:pageopacity="0"
     inkscape:pageshadow="2"
     inkscape:window-width="1053"
     inkscape:window-height="639"
     id="namedview37"
     showgrid="false"
     fit-margin-top="0"
     fit-margin-left="0"
     fit-margin-right="0"
     fit-margin-bottom="0"
     inkscape:zoom="1.1290323"
     inkscape:cx="149.34601"
     inkscape:cy="25.731146"
     inkscape:window-x="2551"
     inkscape:window-y="252"
     inkscape:window-maximized="0"
     inkscape:current-layer="Layer_1" /><path
     style="fill:#2263af"
     inkscape:connector-curvature="0"
     id="path11"
     d="m 48.594,41.808 c -0.395,0.393 -0.897,0.895 -1.559,1.557 0,0 -0.457,0.459 -0.46,0.462 -0.46,0.448 -1.33,0.926 -2.773,0.579 -0.776,-0.186 -1.491,-0.555 -1.953,-0.831 -0.92,-0.555 -1.593,-1.18 -2.015,-1.832 -1.649,1.49 -3.677,2.609 -5.985,3.183 C 26.375,46.778 18.813,42.221 16.96,34.745 15.107,27.27 19.665,19.709 27.139,17.856 c 2.299,-0.57 4.605,-0.529 6.752,0.012 0.018,-0.177 0.047,-0.362 0.094,-0.56 0.184,-0.768 0.554,-1.486 0.833,-1.954 1.183,-1.95 2.669,-2.845 4.092,-2.428 l 0.456,0.141 c 0.945,0.29 1.673,0.513 2.238,0.684 0.2,-1.442 0.461,-3.245 0.461,-3.245 0.126,-1.005 -1.314,-1.815 -2.221,-2.183 -0.91,-0.371 -2.503,-0.8 -3.117,0.011 0,0 -2.744,3.768 -2.991,4.041 -0.248,0.271 -0.586,0.39 -1.321,0.447 L 32.284,12.821 31.403,12.787 31.204,12.758 C 30.482,12.595 30.167,12.43 29.963,12.124 29.755,11.817 27.585,7.69 27.585,7.69 27.095,6.804 25.458,6.996 24.505,7.229 c -0.954,0.237 -2.493,0.826 -2.516,1.84 0,0 -0.007,4.664 -0.044,5.029 -0.042,0.365 -0.243,0.659 -0.806,1.137 l -0.105,0.079 -0.735,0.489 -0.178,0.093 c -0.679,0.291 -1.032,0.344 -1.376,0.218 -0.347,-0.129 -4.53,-2.193 -4.53,-2.193 -0.918,-0.427 -2.128,0.689 -2.762,1.44 -0.634,0.751 -1.534,2.132 -0.955,2.964 0,0 2.736,3.778 2.919,4.098 0.183,0.321 0.191,0.674 0.02,1.394 l -0.04,0.125 -0.306,0.827 -0.091,0.18 c -0.377,0.635 -0.633,0.885 -0.986,0.984 -0.355,0.103 -4.95,0.89 -4.95,0.89 -0.997,0.192 -1.319,1.81 -1.392,2.789 -0.068,0.981 0.016,2.626 0.975,2.96 0,0 4.431,1.446 4.766,1.599 0.336,0.152 0.553,0.433 0.834,1.117 l 0.042,0.123 0.24,0.852 0.032,0.197 c 0.069,0.737 0.01,1.088 -0.218,1.376 -0.227,0.292 -3.482,3.631 -3.482,3.631 -0.694,0.741 -0.004,2.241 0.514,3.075 0.518,0.835 1.554,2.114 2.524,1.821 0,0 4.439,-1.434 4.8,-1.508 0.359,-0.075 0.702,0.025 1.33,0.413 l 0.105,0.075 0.692,0.547 0.144,0.141 c 0.489,0.557 0.648,0.875 0.633,1.243 -0.014,0.367 -0.683,4.984 -0.683,4.984 -0.126,1.004 1.312,1.812 2.222,2.183 l -0.001,0 c 0.909,0.37 2.502,0.799 3.115,-0.009 0,0 2.747,-3.769 2.994,-4.044 0.249,-0.271 0.584,-0.388 1.32,-0.445 l 0.13,-0.003 0.882,0.034 0.199,0.032 c 0.721,0.162 1.037,0.327 1.243,0.633 0.205,0.307 2.375,4.434 2.375,4.434 0.489,0.888 2.127,0.697 3.08,0.46 l 0,0.002 c 0.954,-0.236 2.492,-0.825 2.516,-1.84 0,0 0.006,-4.664 0.047,-5.029 0.037,-0.368 0.241,-0.661 0.804,-1.139 l 0.102,-0.077 0.735,-0.491 0.179,-0.092 c 0.679,-0.291 1.031,-0.345 1.378,-0.218 0.347,0.129 4.527,2.191 4.527,2.191 0.92,0.43 2.134,-0.688 2.763,-1.439 0.634,-0.749 1.535,-2.132 0.956,-2.967 0,0.001 -1.05,-1.448 -1.892,-2.626"
     clip-path="url(#SVGID_2_)"
     transform="translate(-5.653993,-7.0335663)" /><path
     style="fill:#2263af"
     inkscape:connector-curvature="0"
     id="path13"
     d="m 69.183,19.102 c -1.553,0.001 -4.556,-0.005 -4.847,-0.04 -0.418,-0.041 -0.878,-0.377 -1.301,-0.947 -0.575,-0.78 -0.583,-1.297 -0.537,-1.535 0.055,-0.297 0.969,-3.265 1.268,-4.24 l 0.124,-0.398 c 0.217,-0.741 -0.736,-1.625 -1.7,-2.205 -0.965,-0.579 -2.192,-1.006 -2.742,-0.469 -0.003,0.003 -0.334,0.335 -0.334,0.335 -0.786,0.789 -2.879,2.886 -3.109,3.07 -0.191,0.155 -0.652,0.39 -1.611,0.248 C 53.496,12.784 53.112,12.465 52.95,12.22 52.78,11.974 51.322,9.244 50.641,7.96 50.153,7.087 48.25,7.521 47.875,7.616 c -0.373,0.091 -2.256,0.6 -2.278,1.594 0.002,1.459 -0.005,4.554 -0.039,4.848 -0.03,0.297 -0.219,0.759 -0.949,1.3 -0.782,0.577 -1.297,0.585 -1.533,0.538 C 42.777,15.84 39.92,14.961 38.843,14.63 l -0.407,-0.125 c -0.738,-0.217 -1.623,0.735 -2.206,1.698 -0.577,0.967 -1.003,2.194 -0.468,2.743 0.004,0.004 0.322,0.321 0.322,0.321 0.793,0.791 2.899,2.89 3.083,3.122 0.155,0.19 0.39,0.651 0.248,1.611 -0.136,0.898 -0.456,1.281 -0.701,1.443 -0.246,0.17 -2.976,1.629 -4.26,2.31 -0.873,0.487 -0.438,2.389 -0.344,2.765 0.092,0.374 0.601,2.258 1.593,2.28 1.401,-0.003 4.554,0.004 4.85,0.039 0.416,0.041 0.877,0.378 1.298,0.948 0.577,0.779 0.586,1.296 0.538,1.533 -0.054,0.297 -0.935,3.154 -1.267,4.229 l -0.126,0.409 c -0.214,0.739 0.738,1.625 1.701,2.205 0.966,0.578 2.193,1.006 2.743,0.47 0.004,-0.002 0.257,-0.259 0.257,-0.259 0.731,-0.731 2.947,-2.957 3.186,-3.147 0.19,-0.155 0.649,-0.39 1.61,-0.247 0.702,0.106 1.216,0.355 1.444,0.7 0.171,0.247 1.628,2.978 2.309,4.262 0.488,0.871 2.39,0.439 2.768,0.342 0.374,-0.091 2.254,-0.6 2.277,-1.593 -0.003,-1.263 0.005,-4.55 0.04,-4.849 0.029,-0.296 0.217,-0.758 0.947,-1.3 0.78,-0.576 1.298,-0.584 1.534,-0.538 0.301,0.057 3.283,0.975 4.262,1.276 l 0.376,0.115 c 0.74,0.217 1.625,-0.735 2.207,-1.699 0.579,-0.965 1.004,-2.192 0.468,-2.742 l -0.341,-0.341 c -0.787,-0.784 -2.88,-2.872 -3.063,-3.102 -0.156,-0.191 -0.391,-0.648 -0.248,-1.611 0.133,-0.898 0.457,-1.281 0.7,-1.445 0.247,-0.17 2.978,-1.629 4.262,-2.307 0.87,-0.49 0.439,-2.391 0.342,-2.767 -0.091,-0.372 -0.602,-2.255 -1.594,-2.277 M 54.495,34.221 C 49.927,35.353 45.305,32.568 44.173,28 c -1.133,-4.569 1.653,-9.19 6.221,-10.323 4.569,-1.132 9.19,1.653 10.322,6.222 1.133,4.568 -1.653,9.19 -6.221,10.322"
     clip-path="url(#SVGID_2_)"
     transform="translate(-5.653993,-7.0335663)" /></svg>