<?xml version="1.0" encoding="UTF-8" standalone="no"?>
<svg
   xmlns:dc="http://purl.org/dc/elements/1.1/"
   xmlns:cc="http://creativecommons.org/ns#"
   xmlns:rdf="http://www.w3.org/1999/02/22-rdf-syntax-ns#"
   xmlns:svg="http://www.w3.org/2000/svg"
   xmlns="http://www.w3.org/2000/svg"
   xmlns:sodipodi="http://sodipodi.sourceforge.net/DTD/sodipodi-0.dtd"
   xmlns:inkscape="http://www.inkscape.org/namespaces/inkscape"
   viewBox="0 0 64 64"
   version="1.1"
   id="svg18"
   sodipodi:docname="module-formlog.svg"
   inkscape:version="0.92.2 (5c3e80d, 2017-08-06)">
  <metadata
     id="metadata24">
    <rdf:RDF>
      <cc:Work
         rdf:about="">
        <dc:format>image/svg+xml</dc:format>
        <dc:type
           rdf:resource="http://purl.org/dc/dcmitype/StillImage" />
        <dc:title></dc:title>
      </cc:Work>
    </rdf:RDF>
  </metadata>
  <defs
     id="defs22" />
  <sodipodi:namedview
     pagecolor="#ffffff"
     bordercolor="#666666"
     borderopacity="1"
     objecttolerance="10"
     gridtolerance="10"
     guidetolerance="10"
     inkscape:pageopacity="0"
     inkscape:pageshadow="2"
     inkscape:window-width="1016"
     inkscape:window-height="422"
     id="namedview20"
     showgrid="false"
     inkscape:zoom="3.6875"
     inkscape:cx="32"
     inkscape:cy="32"
     inkscape:window-x="477"
     inkscape:window-y="531"
     inkscape:window-maximized="0"
     inkscape:current-layer="svg18" />
  <path
     fill="#3B7EB0"
     d="M0 0h64v64H0z"
     id="path2" />
  <g
     id="g3719"
     class="icon-color"
     transform="matrix(2.6529459,0,0,2.6529459,11.318806,10.776433)"
     style="fill:#ffffff">
    <path
       id="path3715"
       d="M 14.5,2 H 1.5 C 1.2,2 1,2.2 1,2.5 v 11 C 1,13.8 1.2,14 1.5,14 h 13 C 14.8,14 15,13.8 15,13.5 V 2.5 C 15,2.2 14.8,2 14.5,2 Z M 14,13 H 2 V 3 h 12 z"
       inkscape:connector-curvature="0"
       style="fill:#ffffff" />
    <path
       id="path3717"
       d="M 3,4 H 5 V 6 H 3 Z m 3,0 h 7 V 6 H 6 Z M 3,7 H 5 V 9 H 3 Z m 3,0 h 7 V 9 H 6 Z m -3,3 h 2 v 2 H 3 Z m 3,0 h 7 v 2 H 6 Z"
       inkscape:connector-curvature="0"
       style="fill:#ffffff" />
  </g>
</svg>
